<svg width="60" height="360" viewBox="0 0 60 360" fill="none" xmlns="http://www.w3.org/2000/svg">
<g filter="url(#filter0_d_370_1909)">
<path d="M4 308.898C4 306.193 6.19289 304 8.89796 304H47.102C49.8071 304 52 306.193 52 308.898V347.102C52 349.807 49.8071 352 47.102 352H8.89796C6.19289 352 4 349.807 4 347.102V308.898Z" fill="white"/>
<path d="M47.102 302H8.89796C5.08832 302 2 305.088 2 308.898V347.102C2 350.912 5.08832 354 8.89796 354H47.102C50.9117 354 54 350.912 54 347.102V308.898C54 305.088 50.9117 302 47.102 302Z" stroke="black" stroke-width="4"/>
</g>
<path d="M19.1838 314.775C19.1838 317.21 17.2102 319.184 14.7756 319.184C12.341 319.184 10.3674 317.21 10.3674 314.775C10.3674 312.341 12.341 310.367 14.7756 310.367C17.2102 310.367 19.1838 312.341 19.1838 314.775Z" fill="black"/>
<path d="M19.1838 328C19.1838 330.435 17.2102 332.408 14.7756 332.408C12.341 332.408 10.3674 330.435 10.3674 328C10.3674 325.565 12.341 323.592 14.7756 323.592C17.2102 323.592 19.1838 325.565 19.1838 328Z" fill="black"/>
<path d="M45.6327 328C45.6327 330.435 43.6591 332.408 41.2246 332.408C38.79 332.408 36.8164 330.435 36.8164 328C36.8164 325.565 38.79 323.592 41.2246 323.592C43.6591 323.592 45.6327 325.565 45.6327 328Z" fill="black"/>
<path d="M19.1838 341.224C19.1838 343.659 17.2102 345.633 14.7756 345.633C12.341 345.633 10.3674 343.659 10.3674 341.224C10.3674 338.79 12.341 336.816 14.7756 336.816C17.2102 336.816 19.1838 338.79 19.1838 341.224Z" fill="black"/>
<path d="M45.6327 314.775C45.6327 317.21 43.6591 319.184 41.2246 319.184C38.79 319.184 36.8164 317.21 36.8164 314.775C36.8164 312.341 38.79 310.367 41.2246 310.367C43.6591 310.367 45.6327 312.341 45.6327 314.775Z" fill="black"/>
<path d="M45.6327 341.224C45.6327 343.659 43.6591 345.633 41.2246 345.633C38.79 345.633 36.8164 343.659 36.8164 341.224C36.8164 338.79 38.79 336.816 41.2246 336.816C43.6591 336.816 45.6327 338.79 45.6327 341.224Z" fill="black"/>
<g filter="url(#filter1_d_370_1909)">
<path d="M4 248.898C4 246.193 6.19289 244 8.89796 244H47.102C49.8071 244 52 246.193 52 248.898V287.102C52 289.807 49.8071 292 47.102 292H8.89796C6.19289 292 4 289.807 4 287.102V248.898Z" fill="white"/>
<path d="M47.102 242H8.89796C5.08832 242 2 245.088 2 248.898V287.102C2 290.912 5.08832 294 8.89796 294H47.102C50.9117 294 54 290.912 54 287.102V248.898C54 245.088 50.9117 242 47.102 242Z" stroke="black" stroke-width="4"/>
</g>
<path d="M19.1838 254.775C19.1838 257.21 17.2102 259.184 14.7756 259.184C12.341 259.184 10.3674 257.21 10.3674 254.775C10.3674 252.341 12.341 250.367 14.7756 250.367C17.2102 250.367 19.1838 252.341 19.1838 254.775Z" fill="black"/>
<path d="M32.4081 268C32.4081 270.435 30.4345 272.408 28 272.408C25.5654 272.408 23.5918 270.435 23.5918 268C23.5918 265.565 25.5654 263.592 28 263.592C30.4345 263.592 32.4081 265.565 32.4081 268Z" fill="black"/>
<path d="M19.1838 281.224C19.1838 283.659 17.2102 285.633 14.7756 285.633C12.341 285.633 10.3674 283.659 10.3674 281.224C10.3674 278.79 12.341 276.816 14.7756 276.816C17.2102 276.816 19.1838 278.79 19.1838 281.224Z" fill="black"/>
<path d="M45.6327 254.775C45.6327 257.21 43.6591 259.184 41.2246 259.184C38.79 259.184 36.8164 257.21 36.8164 254.775C36.8164 252.341 38.79 250.367 41.2246 250.367C43.6591 250.367 45.6327 252.341 45.6327 254.775Z" fill="black"/>
<path d="M45.6327 281.224C45.6327 283.659 43.6591 285.633 41.2246 285.633C38.79 285.633 36.8164 283.659 36.8164 281.224C36.8164 278.79 38.79 276.816 41.2246 276.816C43.6591 276.816 45.6327 278.79 45.6327 281.224Z" fill="black"/>
<g filter="url(#filter2_d_370_1909)">
<path d="M4 188.898C4 186.193 6.19289 184 8.89796 184H47.102C49.8071 184 52 186.193 52 188.898V227.102C52 229.807 49.8071 232 47.102 232H8.89796C6.19289 232 4 229.807 4 227.102V188.898Z" fill="white"/>
<path d="M47.102 182H8.89796C5.08832 182 2 185.088 2 188.898V227.102C2 230.912 5.08832 234 8.89796 234H47.102C50.9117 234 54 230.912 54 227.102V188.898C54 185.088 50.9117 182 47.102 182Z" stroke="black" stroke-width="4"/>
</g>
<path d="M19.1838 194.775C19.1838 197.21 17.2102 199.184 14.7756 199.184C12.341 199.184 10.3674 197.21 10.3674 194.775C10.3674 192.341 12.341 190.367 14.7756 190.367C17.2102 190.367 19.1838 192.341 19.1838 194.775Z" fill="black"/>
<path d="M19.1838 221.224C19.1838 223.659 17.2102 225.633 14.7756 225.633C12.341 225.633 10.3674 223.659 10.3674 221.224C10.3674 218.79 12.341 216.816 14.7756 216.816C17.2102 216.816 19.1838 218.79 19.1838 221.224Z" fill="black"/>
<path d="M45.6327 194.775C45.6327 197.21 43.6591 199.184 41.2246 199.184C38.79 199.184 36.8164 197.21 36.8164 194.775C36.8164 192.341 38.79 190.367 41.2246 190.367C43.6591 190.367 45.6327 192.341 45.6327 194.775Z" fill="black"/>
<path d="M45.6327 221.224C45.6327 223.659 43.6591 225.633 41.2246 225.633C38.79 225.633 36.8164 223.659 36.8164 221.224C36.8164 218.79 38.79 216.816 41.2246 216.816C43.6591 216.816 45.6327 218.79 45.6327 221.224Z" fill="black"/>
<g filter="url(#filter3_d_370_1909)">
<path d="M4 128.898C4 126.193 6.19289 124 8.89796 124H47.102C49.8071 124 52 126.193 52 128.898V167.102C52 169.807 49.8071 172 47.102 172H8.89796C6.19289 172 4 169.807 4 167.102V128.898Z" fill="white"/>
<path d="M47.102 122H8.89796C5.08832 122 2 125.088 2 128.898V167.102C2 170.912 5.08832 174 8.89796 174H47.102C50.9117 174 54 170.912 54 167.102V128.898C54 125.088 50.9117 122 47.102 122Z" stroke="black" stroke-width="4"/>
</g>
<path d="M32.4081 148C32.4081 150.435 30.4345 152.408 28 152.408C25.5654 152.408 23.5918 150.435 23.5918 148C23.5918 145.565 25.5654 143.592 28 143.592C30.4345 143.592 32.4081 145.565 32.4081 148Z" fill="black"/>
<path d="M19.1838 161.224C19.1838 163.659 17.2102 165.633 14.7756 165.633C12.341 165.633 10.3674 163.659 10.3674 161.224C10.3674 158.79 12.341 156.816 14.7756 156.816C17.2102 156.816 19.1838 158.79 19.1838 161.224Z" fill="black"/>
<path d="M45.6327 134.775C45.6327 137.21 43.6591 139.184 41.2246 139.184C38.79 139.184 36.8164 137.21 36.8164 134.775C36.8164 132.341 38.79 130.367 41.2246 130.367C43.6591 130.367 45.6327 132.341 45.6327 134.775Z" fill="black"/>
<g filter="url(#filter4_d_370_1909)">
<path d="M4 68.898C4 66.1929 6.19289 64 8.89796 64H47.102C49.8071 64 52 66.1929 52 68.898V107.102C52 109.807 49.8071 112 47.102 112H8.89796C6.19289 112 4 109.807 4 107.102V68.898Z" fill="white"/>
<path d="M47.102 62H8.89796C5.08832 62 2 65.0883 2 68.898V107.102C2 110.912 5.08832 114 8.89796 114H47.102C50.9117 114 54 110.912 54 107.102V68.898C54 65.0883 50.9117 62 47.102 62Z" stroke="black" stroke-width="4"/>
</g>
<path d="M19.1838 101.224C19.1838 103.659 17.2102 105.633 14.7756 105.633C12.341 105.633 10.3674 103.659 10.3674 101.224C10.3674 98.7899 12.341 96.8163 14.7756 96.8163C17.2102 96.8163 19.1838 98.7899 19.1838 101.224Z" fill="black"/>
<path d="M45.6327 74.7755C45.6327 77.2101 43.6591 79.1836 41.2246 79.1836C38.79 79.1836 36.8164 77.2101 36.8164 74.7755C36.8164 72.3409 38.79 70.3673 41.2246 70.3673C43.6591 70.3673 45.6327 72.3409 45.6327 74.7755Z" fill="black"/>
<g filter="url(#filter5_d_370_1909)">
<path d="M4 8.89796C4 6.19289 6.19289 4 8.89796 4H47.102C49.8071 4 52 6.19289 52 8.89796V47.102C52 49.8071 49.8071 52 47.102 52H8.89796C6.19289 52 4 49.8071 4 47.102V8.89796Z" fill="white"/>
<path d="M47.102 2H8.89796C5.08832 2 2 5.08832 2 8.89796V47.102C2 50.9117 5.08832 54 8.89796 54H47.102C50.9117 54 54 50.9117 54 47.102V8.89796C54 5.08832 50.9117 2 47.102 2Z" stroke="black" stroke-width="4"/>
</g>
<path d="M32.4081 28C32.4081 30.4345 30.4345 32.4081 28 32.4081C25.5654 32.4081 23.5918 30.4345 23.5918 28C23.5918 25.5654 25.5654 23.5918 28 23.5918C30.4345 23.5918 32.4081 25.5654 32.4081 28Z" fill="black"/>
<defs>
<filter id="filter0_d_370_1909" x="0" y="300" width="60" height="60" filterUnits="userSpaceOnUse" color-interpolation-filters="sRGB">
<feFlood flood-opacity="0" result="BackgroundImageFix"/>
<feColorMatrix in="SourceAlpha" type="matrix" values="0 0 0 0 0 0 0 0 0 0 0 0 0 0 0 0 0 0 127 0" result="hardAlpha"/>
<feOffset dx="4" dy="4"/>
<feColorMatrix type="matrix" values="0 0 0 0 0 0 0 0 0 0 0 0 0 0 0 0 0 0 1 0"/>
<feBlend mode="normal" in2="BackgroundImageFix" result="effect1_dropShadow_370_1909"/>
<feBlend mode="normal" in="SourceGraphic" in2="effect1_dropShadow_370_1909" result="shape"/>
</filter>
<filter id="filter1_d_370_1909" x="0" y="240" width="60" height="60" filterUnits="userSpaceOnUse" color-interpolation-filters="sRGB">
<feFlood flood-opacity="0" result="BackgroundImageFix"/>
<feColorMatrix in="SourceAlpha" type="matrix" values="0 0 0 0 0 0 0 0 0 0 0 0 0 0 0 0 0 0 127 0" result="hardAlpha"/>
<feOffset dx="4" dy="4"/>
<feColorMatrix type="matrix" values="0 0 0 0 0 0 0 0 0 0 0 0 0 0 0 0 0 0 1 0"/>
<feBlend mode="normal" in2="BackgroundImageFix" result="effect1_dropShadow_370_1909"/>
<feBlend mode="normal" in="SourceGraphic" in2="effect1_dropShadow_370_1909" result="shape"/>
</filter>
<filter id="filter2_d_370_1909" x="0" y="180" width="60" height="60" filterUnits="userSpaceOnUse" color-interpolation-filters="sRGB">
<feFlood flood-opacity="0" result="BackgroundImageFix"/>
<feColorMatrix in="SourceAlpha" type="matrix" values="0 0 0 0 0 0 0 0 0 0 0 0 0 0 0 0 0 0 127 0" result="hardAlpha"/>
<feOffset dx="4" dy="4"/>
<feColorMatrix type="matrix" values="0 0 0 0 0 0 0 0 0 0 0 0 0 0 0 0 0 0 1 0"/>
<feBlend mode="normal" in2="BackgroundImageFix" result="effect1_dropShadow_370_1909"/>
<feBlend mode="normal" in="SourceGraphic" in2="effect1_dropShadow_370_1909" result="shape"/>
</filter>
<filter id="filter3_d_370_1909" x="0" y="120" width="60" height="60" filterUnits="userSpaceOnUse" color-interpolation-filters="sRGB">
<feFlood flood-opacity="0" result="BackgroundImageFix"/>
<feColorMatrix in="SourceAlpha" type="matrix" values="0 0 0 0 0 0 0 0 0 0 0 0 0 0 0 0 0 0 127 0" result="hardAlpha"/>
<feOffset dx="4" dy="4"/>
<feColorMatrix type="matrix" values="0 0 0 0 0 0 0 0 0 0 0 0 0 0 0 0 0 0 1 0"/>
<feBlend mode="normal" in2="BackgroundImageFix" result="effect1_dropShadow_370_1909"/>
<feBlend mode="normal" in="SourceGraphic" in2="effect1_dropShadow_370_1909" result="shape"/>
</filter>
<filter id="filter4_d_370_1909" x="0" y="60" width="60" height="60" filterUnits="userSpaceOnUse" color-interpolation-filters="sRGB">
<feFlood flood-opacity="0" result="BackgroundImageFix"/>
<feColorMatrix in="SourceAlpha" type="matrix" values="0 0 0 0 0 0 0 0 0 0 0 0 0 0 0 0 0 0 127 0" result="hardAlpha"/>
<feOffset dx="4" dy="4"/>
<feColorMatrix type="matrix" values="0 0 0 0 0 0 0 0 0 0 0 0 0 0 0 0 0 0 1 0"/>
<feBlend mode="normal" in2="BackgroundImageFix" result="effect1_dropShadow_370_1909"/>
<feBlend mode="normal" in="SourceGraphic" in2="effect1_dropShadow_370_1909" result="shape"/>
</filter>
<filter id="filter5_d_370_1909" x="0" y="0" width="60" height="60" filterUnits="userSpaceOnUse" color-interpolation-filters="sRGB">
<feFlood flood-opacity="0" result="BackgroundImageFix"/>
<feColorMatrix in="SourceAlpha" type="matrix" values="0 0 0 0 0 0 0 0 0 0 0 0 0 0 0 0 0 0 127 0" result="hardAlpha"/>
<feOffset dx="4" dy="4"/>
<feColorMatrix type="matrix" values="0 0 0 0 0 0 0 0 0 0 0 0 0 0 0 0 0 0 1 0"/>
<feBlend mode="normal" in2="BackgroundImageFix" result="effect1_dropShadow_370_1909"/>
<feBlend mode="normal" in="SourceGraphic" in2="effect1_dropShadow_370_1909" result="shape"/>
</filter>
</defs>
</svg>
