<svg width="24" height="20" viewBox="0 0 24 20" fill="none" xmlns="http://www.w3.org/2000/svg">
<g id="material-symbols:playlist-add-rounded">
<path id="Vector" d="M17 16.6667C16.7167 16.6667 16.4793 16.5867 16.288 16.4267C16.096 16.2672 16 16.0694 16 15.8333V13.3333H13C12.7167 13.3333 12.4793 13.2533 12.288 13.0933C12.096 12.9339 12 12.7361 12 12.5C12 12.2639 12.096 12.0658 12.288 11.9058C12.4793 11.7464 12.7167 11.6667 13 11.6667H16V9.16667C16 8.93056 16.096 8.7325 16.288 8.5725C16.4793 8.41306 16.7167 8.33333 17 8.33333C17.2833 8.33333 17.5207 8.41306 17.712 8.5725C17.904 8.7325 18 8.93056 18 9.16667V11.6667H21C21.2833 11.6667 21.5207 11.7464 21.712 11.9058C21.904 12.0658 22 12.2639 22 12.5C22 12.7361 21.904 12.9339 21.712 13.0933C21.5207 13.2533 21.2833 13.3333 21 13.3333H18V15.8333C18 16.0694 17.904 16.2672 17.712 16.4267C17.5207 16.5867 17.2833 16.6667 17 16.6667ZM4 13.3333C3.71667 13.3333 3.47933 13.2533 3.288 13.0933C3.096 12.9339 3 12.7361 3 12.5C3 12.2639 3.096 12.0658 3.288 11.9058C3.47933 11.7464 3.71667 11.6667 4 11.6667H9C9.28333 11.6667 9.521 11.7464 9.713 11.9058C9.90433 12.0658 10 12.2639 10 12.5C10 12.7361 9.90433 12.9339 9.713 13.0933C9.521 13.2533 9.28333 13.3333 9 13.3333H4ZM4 10C3.71667 10 3.47933 9.92 3.288 9.76C3.096 9.60056 3 9.40278 3 9.16667C3 8.93056 3.096 8.7325 3.288 8.5725C3.47933 8.41306 3.71667 8.33333 4 8.33333H13C13.2833 8.33333 13.521 8.41306 13.713 8.5725C13.9043 8.7325 14 8.93056 14 9.16667C14 9.40278 13.9043 9.60056 13.713 9.76C13.521 9.92 13.2833 10 13 10H4ZM4 6.66667C3.71667 6.66667 3.47933 6.58694 3.288 6.4275C3.096 6.2675 3 6.06944 3 5.83333C3 5.59722 3.096 5.39917 3.288 5.23917C3.47933 5.07972 3.71667 5 4 5H13C13.2833 5 13.521 5.07972 13.713 5.23917C13.9043 5.39917 14 5.59722 14 5.83333C14 6.06944 13.9043 6.2675 13.713 6.4275C13.521 6.58694 13.2833 6.66667 13 6.66667H4Z" fill="#DDDCDE"/>
</g>
</svg>
