<svg xmlns="http://www.w3.org/2000/svg" width="147" height="128" viewBox="0 0 147 128" fill="none">
  <g clip-path="url(#clip0_1_2466)">
    <path d="M121.177 33.6664C130.474 33.6664 138.011 26.1299 138.011 16.8332C138.011 7.53648 130.474 0 121.177 0C111.881 0 104.344 7.53648 104.344 16.8332C104.344 26.1299 111.881 33.6664 121.177 33.6664Z" fill="#8666DD"/>
    <path d="M29.7786 121.444C29.7786 121.444 30.0248 116.285 35.0725 116.885L29.7786 121.444Z" fill="#3F3D56"/>
    <path d="M28.3522 116.535C29.7475 116.535 30.8786 115.403 30.8786 114.008C30.8786 112.613 29.7475 111.482 28.3522 111.482C26.957 111.482 25.8259 112.613 25.8259 114.008C25.8259 115.403 26.957 116.535 28.3522 116.535Z" fill="#8666DD"/>
    <path d="M28.6543 118.262H27.9412V123.254H28.6543V118.262Z" fill="#3F3D56"/>
    <path d="M112.975 122.326C112.975 122.326 113.221 117.166 118.269 117.766L112.975 122.326Z" fill="#3F3D56"/>
    <path d="M111.549 117.416C112.944 117.416 114.075 116.285 114.075 114.89C114.075 113.494 112.944 112.363 111.549 112.363C110.154 112.363 109.022 113.494 109.022 114.89C109.022 116.285 110.154 117.416 111.549 117.416Z" fill="#8666DD"/>
    <path d="M111.851 119.144H111.138V124.136H111.851V119.144Z" fill="#3F3D56"/>
    <path d="M125.137 123.207C125.137 123.207 125.383 118.048 130.431 118.647L125.137 123.207Z" fill="#3F3D56"/>
    <path d="M123.711 118.297C125.106 118.297 126.237 117.166 126.237 115.771C126.237 114.376 125.106 113.245 123.711 113.245C122.316 113.245 121.185 114.376 121.185 115.771C121.185 117.166 122.316 118.297 123.711 118.297Z" fill="#8666DD"/>
    <path d="M124.013 120.025H123.3V125.017H124.013V120.025Z" fill="#3F3D56"/>
    <path d="M49.6963 118.977C49.6963 118.977 49.9425 113.817 54.9902 114.417L49.6963 118.977Z" fill="#3F3D56"/>
    <path d="M48.2702 114.067C49.6655 114.067 50.7965 112.936 50.7965 111.541C50.7965 110.145 49.6655 109.014 48.2702 109.014C46.875 109.014 45.7439 110.145 45.7439 111.541C45.7439 112.936 46.875 114.067 48.2702 114.067Z" fill="#8666DD"/>
    <path d="M48.5723 115.795H47.8591V120.787H48.5723V115.795Z" fill="#3F3D56"/>
    <path d="M12.1521 119.858C12.1521 119.858 12.3983 114.699 17.446 115.298L12.1521 119.858Z" fill="#3F3D56"/>
    <path d="M10.7258 114.948C12.121 114.948 13.2521 113.817 13.2521 112.422C13.2521 111.027 12.121 109.896 10.7258 109.896C9.33053 109.896 8.19946 111.027 8.19946 112.422C8.19946 113.817 9.33053 114.948 10.7258 114.948Z" fill="#8666DD"/>
    <path d="M11.0278 116.676H10.3147V121.668H11.0278V116.676Z" fill="#3F3D56"/>
    <path d="M73.2336 110.893C88.435 110.893 100.758 98.5694 100.758 83.368C100.758 68.1666 88.435 55.8434 73.2336 55.8434C58.0322 55.8434 45.709 68.1666 45.709 83.368C45.709 98.5694 58.0322 110.893 73.2336 110.893Z" fill="#3F3D56"/>
    <path d="M55.9051 85.5775C56.5887 84.7592 57.4437 84.1008 58.4096 83.6491C59.3755 83.1974 60.4288 82.9633 61.4951 82.9633C62.5614 82.9633 63.6148 83.1974 64.5807 83.6491C65.5466 84.1008 66.4015 84.7592 67.0851 85.5775C68.2548 84.4609 69.0633 83.0195 69.4064 81.4392C69.7494 79.8588 69.6113 78.212 69.0098 76.7109C68.4083 75.2098 67.3711 73.9232 66.0317 73.017C64.6923 72.1108 63.1123 71.6264 61.4951 71.6264C59.878 71.6264 58.2979 72.1108 56.9586 73.017C55.6192 73.9232 54.5819 75.2098 53.9805 76.7109C53.379 78.212 53.2409 79.8588 53.5839 81.4392C53.9269 83.0195 54.7354 84.4609 55.9051 85.5775Z" fill="white"/>
    <path d="M77.7628 85.5775C78.4464 84.7591 79.3013 84.1008 80.2672 83.6491C81.2332 83.1974 82.2865 82.9633 83.3528 82.9633C84.4191 82.9633 85.4724 83.1974 86.4383 83.6491C87.4043 84.1008 88.2592 84.7591 88.9428 85.5775C90.1125 84.4609 90.921 83.0195 91.264 81.4392C91.607 79.8588 91.4689 78.212 90.8675 76.7109C90.266 75.2098 89.2287 73.9232 87.8894 73.017C86.55 72.1108 84.9699 71.6264 83.3528 71.6264C81.7357 71.6264 80.1556 72.1108 78.8162 73.017C77.4769 73.9232 76.4396 75.2098 75.8381 76.7109C75.2366 78.212 75.0985 79.8588 75.4416 81.4392C75.7846 83.0195 76.5931 84.4609 77.7628 85.5775Z" fill="white"/>
    <path d="M58.7335 79.75C60.2715 79.75 61.5182 78.5032 61.5182 76.9653C61.5182 75.4273 60.2715 74.1805 58.7335 74.1805C57.1955 74.1805 55.9487 75.4273 55.9487 76.9653C55.9487 78.5032 57.1955 79.75 58.7335 79.75Z" fill="#3F3D56"/>
    <path d="M80.5904 79.75C82.1284 79.75 83.3752 78.5032 83.3752 76.9653C83.3752 75.4273 82.1284 74.1805 80.5904 74.1805C79.0524 74.1805 77.8057 75.4273 77.8057 76.9653C77.8057 78.5032 79.0524 79.75 80.5904 79.75Z" fill="#3F3D56"/>
    <path d="M53.3996 93.4873C55.188 93.4873 56.6377 92.0376 56.6377 90.2492C56.6377 88.4608 55.188 87.011 53.3996 87.011C51.6112 87.011 50.1614 88.4608 50.1614 90.2492C50.1614 92.0376 51.6112 93.4873 53.3996 93.4873Z" fill="#FF6584"/>
    <path d="M90.6388 93.4873C92.4272 93.4873 93.877 92.0376 93.877 90.2492C93.877 88.4608 92.4272 87.011 90.6388 87.011C88.8504 87.011 87.4006 88.4608 87.4006 90.2492C87.4006 92.0376 88.8504 93.4873 90.6388 93.4873Z" fill="#FF6584"/>
    <path d="M72.0192 83.7727L69.5906 94.2969L73.6383 90.2492L72.0192 83.7727Z" fill="#FF6584"/>
    <path d="M84.4982 124.25L81.7409 121.936L81.8052 124.25H80.9488L80.8804 121.803L77.1576 124.25H75.5991L80.8526 120.797L80.6491 113.546L80.4971 108.07L81.3513 108.047L81.5055 113.546L81.7088 120.791L85.8297 124.25H84.4982Z" fill="#3F3D56"/>
    <path d="M71.5444 124.25L68.7871 121.936L68.8514 124.25H67.9973L67.9287 121.803L64.2059 124.25H62.6475L67.8988 120.797L67.6954 113.546L67.5434 108.07L68.3997 108.047L68.5538 113.546L68.755 120.791L72.876 124.25H71.5444Z" fill="#3F3D56"/>
    <path d="M73.6384 53.8196C72.8832 53.8196 72.2169 54.4063 71.7715 55.3074C71.3789 53.9524 70.554 53.0101 69.5907 53.0101C69.5252 53.0166 69.4603 53.0275 69.3963 53.0427C69.026 51.596 68.1654 50.5814 67.162 50.5814C65.8207 50.5814 64.7334 52.3937 64.7334 54.6292C64.7334 56.8646 65.8207 58.6769 67.162 58.6769C67.2275 58.6704 67.2925 58.6595 67.3565 58.6442C67.7268 60.0909 68.5873 61.1055 69.5907 61.1055C70.3459 61.1055 71.0122 60.5189 71.4576 59.6178C71.8502 60.9728 72.6751 61.9151 73.6384 61.9151C74.9797 61.9151 76.0671 60.1028 76.0671 57.8673C76.0671 55.6318 74.9797 53.8196 73.6384 53.8196Z" fill="#3F3D56"/>
    <path d="M47.3982 93.7986C46.3351 93.7986 45.2824 93.5892 44.3002 93.1824C43.318 92.7755 42.4256 92.1792 41.6738 91.4275C40.9221 90.6758 40.3258 89.7833 39.919 88.8012C39.5121 87.819 39.3027 86.7663 39.3027 85.7032V81.6554C39.3027 79.5084 40.1556 77.4493 41.6738 75.9311C43.192 74.4129 45.2511 73.56 47.3982 73.56V93.7986Z" fill="#8666DD"/>
    <path d="M99.0688 73.56C100.132 73.56 101.185 73.7694 102.167 74.1762C103.149 74.583 104.041 75.1793 104.793 75.9311C105.545 76.6828 106.141 77.5752 106.548 78.5574C106.955 79.5396 107.164 80.5923 107.164 81.6554V85.7032C107.164 86.7663 106.955 87.819 106.548 88.8012C106.141 89.7833 105.545 90.6758 104.793 91.4275C104.041 92.1792 103.149 92.7756 102.167 93.1824C101.185 93.5892 100.132 93.7986 99.0689 93.7986L99.0688 73.56Z" fill="#8666DD"/>
    <path d="M103.311 82.2915H102.026C102.026 66.0019 88.7739 52.7492 72.4842 52.7492C56.1946 52.7492 42.9419 66.0019 42.9419 82.2915H41.6575C41.6575 65.2936 55.4863 51.4648 72.4842 51.4648C89.4822 51.4648 103.311 65.2936 103.311 82.2915Z" fill="#8666DD"/>
    <path d="M28.4053 57.5357L28.4055 57.5352L27.8021 57.2839L25.256 56.2076L24.3434 55.8218L24.2733 55.9986L23.0474 59.094L26.4976 60.5543L26.5157 60.5707L26.2832 61.1189C26.2514 61.1691 26.2242 61.222 26.2021 61.2772C26.0392 61.6884 26.3468 62.0974 26.6376 62.2126C26.9284 62.3278 27.2962 62.0878 27.459 61.6765C27.6197 61.2709 27.4627 60.7556 27.1793 60.6311L27.1796 60.6306L26.5761 60.3793L24.5118 59.5769L25.6913 56.5988L25.5165 56.5296L24.3366 59.5087L24.0813 59.4095L25.2659 56.4187L25.2971 56.4319L27.7235 57.4589L27.7416 57.4753L27.5092 58.0235C27.4773 58.0737 27.4502 58.1266 27.428 58.1817C27.2652 58.593 27.5728 59.002 27.8636 59.1172C28.1543 59.2323 28.5221 58.9924 28.685 58.5811C28.8456 58.1755 28.6886 57.6602 28.4053 57.5357Z" fill="#8666DD"/>
    <path d="M40.3471 65.1349C39.0947 64.4188 39.3453 62.8474 39.3453 62.8474C39.3138 61.8265 38.4703 61.971 38.4703 61.971L38.1634 62.0411C38.0208 61.9749 37.8638 61.9459 37.7069 61.9567L37.24 62.0353C38.3033 62.2851 38.2159 63.1745 38.2159 63.1745L38.3649 64.2146L35.5788 63.0906L35.8987 62.3364C35.9429 62.2668 35.9806 62.1932 36.0113 62.1167C36.2375 61.5455 35.8103 60.9774 35.4064 60.8174C35.0025 60.6574 34.4918 60.9908 34.2655 61.5619C34.0424 62.1253 34.2605 62.841 34.6541 63.0139L34.6537 63.0146L35.4918 63.3637L35.4981 63.3439L40.3471 65.1349ZM38.9323 63.3076L39.0217 64.303C38.7062 63.8604 38.558 63.3202 38.6034 62.7786C38.596 62.5859 38.531 62.3999 38.4169 62.2445C38.5924 62.357 38.7335 62.5158 38.8244 62.7034C38.9154 62.891 38.9527 63.1001 38.9323 63.3076Z" fill="#8666DD"/>
    <path d="M19.0948 50.4127L19.0952 50.412L18.2571 50.063L14.7542 48.7013L15.6383 47.9148C15.8113 47.6842 16.0667 47.5294 16.3511 47.4828C16.6356 47.4362 16.927 47.5014 17.1645 47.6647L16.8901 47.257C16.8901 47.257 16.3744 46.5742 15.6524 47.2966C15.6524 47.2966 14.7591 48.6135 13.356 48.2778L18.148 50.3061L18.1731 50.3289L17.8502 51.0903C17.806 51.1599 17.7683 51.2335 17.7375 51.31C17.5113 51.8812 17.9386 52.4493 18.3425 52.6092C18.7463 52.7692 19.2571 52.4359 19.4834 51.8647C19.7065 51.3013 19.4884 50.5856 19.0948 50.4127Z" fill="#8666DD"/>
    <path d="M31.9187 45.9561L31.5958 46.7175C31.5516 46.7872 31.5139 46.8607 31.4832 46.9373C31.2569 47.5084 31.6842 48.0766 32.088 48.2365C32.4919 48.3965 33.0027 48.0631 33.229 47.492C33.4521 46.9286 33.234 46.2129 32.8404 46.04L32.8408 46.0393L32.0027 45.6903L29.1356 44.5757L30.7738 40.4395L30.531 40.3433L28.8922 44.4811L28.5377 44.3433L30.1828 40.1894L30.2262 40.2077L33.5963 41.6341L33.6214 41.6569L33.2985 42.4183C33.2543 42.4879 33.2166 42.5615 33.1859 42.638C32.9597 43.2092 33.3869 43.7773 33.7908 43.9373C34.1946 44.0973 34.7055 43.7639 34.9317 43.1927C35.1548 42.6294 34.9367 41.9137 34.5432 41.7407L34.5435 41.7401L33.7054 41.391L30.2803 39.9432L30.1691 39.8961L28.9016 39.3603L27.1016 43.9051L31.8936 45.9333L31.9187 45.9561Z" fill="#8666DD"/>
    <path d="M16.7326 22.6802L16.7332 22.679L15.2905 22.0782L9.26057 19.7342L10.7825 18.3801C10.7825 18.3801 11.7948 16.9755 13.4096 17.9498L12.9374 17.2479C12.9374 17.2479 12.0495 16.0724 10.8067 17.3161C10.8067 17.3161 9.26895 19.583 6.85352 19.0052L15.1027 22.4966L15.146 22.5359L14.5901 23.8466C14.514 23.9665 14.4491 24.0931 14.3962 24.2249C14.0068 25.2081 14.7422 26.1861 15.4375 26.4614C16.1327 26.7368 17.0121 26.163 17.4015 25.1798C17.7855 24.2099 17.4102 22.9779 16.7326 22.6802Z" fill="#8666DD"/>
    <path d="M21.1604 42.3703C18.1658 40.6581 18.765 36.901 18.765 36.901C18.6897 34.4602 16.6731 34.8057 16.6731 34.8057L15.9392 34.9732C15.5982 34.8149 15.2228 34.7455 14.8478 34.7713L13.7314 34.9592C16.2736 35.5565 16.0647 37.6832 16.0647 37.6832L16.4209 40.1698L9.75965 37.4826L10.5245 35.6792C10.6302 35.5127 10.7203 35.3368 10.7939 35.1538C11.3347 33.7882 10.3132 32.4299 9.34756 32.0474C8.3819 31.665 7.16063 32.462 6.61978 33.8276C6.0863 35.1745 6.60766 36.8857 7.54867 37.2992L7.54788 37.3008L9.55173 38.1353L9.56665 38.0881L21.1604 42.3703ZM17.7777 38.0012L17.992 40.3895C16.7343 38.72 16.9914 36.7364 16.9914 36.7364C16.9736 36.2757 16.8183 35.831 16.5452 35.4595C17.99 36.3241 17.7777 38.0012 17.7777 38.0012Z" fill="#8666DD"/>
  </g>
  <defs>
    <clipPath id="clip0_1_2466">
      <rect width="147" height="127.968" fill="white"/>
    </clipPath>
  </defs>
</svg>